# xmcd
#
# Track frame offsets:
# 150
# 14115
# 32277
# 45586
# 64234
# 78420
# 92426
# 107679
# 123900
# 140153
# 154384
# 170234
#
# Disc length: 2455 seconds
#
#
# Revision: 0
# Processed by: cddbd v1.5.2PL0 Copyright (c) Steve Scherf et al.
# Submitted via: FreeRIP 2.945 
#
DISCID=a009950c
DTITLE=Sidney Lima - Sidney Lima - Volume 02
DYEAR=1900
DGENRE=Gauchesco
TTITLE0=Mais Um Galo Que Canta
TTITLE1=Rio Grande é Rio Grande
TTITLE2=Baita Gaita
TTITLE3=Amar não é Crime
TTITLE4=Pintadinha
TTITLE5=Meu Úlitmo Pedido
TTITLE6=Festa da Cenoura
TTITLE7=Bombacha Preta
TTITLE8=Vou Ganhar Essa Mulher
TTITLE9=Esqueci de Viajar
TTITLE10=Velho Rancho
TTITLE11=Imitando Amaranto Pereira
EXTD=
EXTT0=Sidney Lima e Milongueiro
EXTT1=Sidney Lima
EXTT2=Loreno e João Menezes
EXTT3=Darci Silva
EXTT4=Sidney Lima
EXTT5=Sidney Lima
EXTT6=Sidney Lima
EXTT7=Bruno Neher
EXTT8=Sidney Lima e Leonir
EXTT9=Sidney Lima
EXTT10=Sidney Lima
EXTT11=Sidney Lima
PLAYORDER=
